<svg xmlns="http://www.w3.org/2000/svg" xmlns:wrs="http://www.wiris.com/xml/cvs-extension" height="53" width="88" wrs:baseline="38"><!--MathML: <math xmlns="http://www.w3.org/1998/Math/MathML"><mfrac><msqrt><mi>x</mi><msqrt><mi>x</mi><msqrt><mi>x</mi></msqrt></msqrt></msqrt><mi>x</mi></mfrac><mo>&#xA0;</mo></math>--><defs><style type="text/css"/></defs><line stroke="#000000" stroke-linecap="square" stroke-width="1" x1="2.5" x2="80.5" y1="32.5" y2="32.5"/><polyline fill="none" points="12,-24 11,-24 5,0 2,-9" stroke="#000000" stroke-linecap="square" stroke-width="1" transform="translate(4.5,28.5)"/><polyline fill="none" points="5,0 2,-9 0,-8" stroke="#000000" stroke-linecap="square" stroke-width="1" transform="translate(4.5,28.5)"/><line stroke="#000000" stroke-linecap="square" stroke-width="1" x1="16.5" x2="78.5" y1="4.5" y2="4.5"/><text font-family="Arial" font-size="16" font-style="italic" text-anchor="middle" x="22.5" y="27">x</text><polyline fill="none" points="12,-20 11,-20 5,0 2,-8" stroke="#000000" stroke-linecap="square" stroke-width="1" transform="translate(27.5,28.5)"/><polyline fill="none" points="5,0 2,-8 0,-7" stroke="#000000" stroke-linecap="square" stroke-width="1" transform="translate(27.5,28.5)"/><line stroke="#000000" stroke-linecap="square" stroke-width="1" x1="39.5" x2="76.5" y1="8.5" y2="8.5"/><text font-family="Arial" font-size="16" font-style="italic" text-anchor="middle" x="45.5" y="27">x</text><polyline fill="none" points="12,-16 11,-16 5,0 2,-6" stroke="#000000" stroke-linecap="square" stroke-width="1" transform="translate(50.5,28.5)"/><polyline fill="none" points="5,0 2,-6 0,-5" stroke="#000000" stroke-linecap="square" stroke-width="1" transform="translate(50.5,28.5)"/><line stroke="#000000" stroke-linecap="square" stroke-width="1" x1="62.5" x2="74.5" y1="12.5" y2="12.5"/><text font-family="Arial" font-size="16" font-style="italic" text-anchor="middle" x="68.5" y="27">x</text><text font-family="Arial" font-size="16" font-style="italic" text-anchor="middle" x="41.5" y="49">x</text></svg>