<svg xmlns="http://www.w3.org/2000/svg" xmlns:wrs="http://www.wiris.com/xml/cvs-extension" height="39" width="89" wrs:baseline="35"><!--MathML: <math xmlns="http://www.w3.org/1998/Math/MathML"><msqrt><msqrt><msqrt><msqrt><msqrt/></msqrt></msqrt></msqrt></msqrt></math>--><defs><style type="text/css"/></defs><polyline fill="none" points="12,-32 11,-32 5,0 2,-13" stroke="#000000" stroke-linecap="square" stroke-width="1" transform="translate(0.5,36.5)"/><polyline fill="none" points="5,0 2,-13 0,-11" stroke="#000000" stroke-linecap="square" stroke-width="1" transform="translate(0.5,36.5)"/><line stroke="#000000" stroke-linecap="square" stroke-width="1" x1="12.5" x2="87.5" y1="4.5" y2="4.5"/><polyline fill="none" points="12,-28 11,-28 5,0 2,-11" stroke="#000000" stroke-linecap="square" stroke-width="1" transform="translate(14.5,36.5)"/><polyline fill="none" points="5,0 2,-11 0,-10" stroke="#000000" stroke-linecap="square" stroke-width="1" transform="translate(14.5,36.5)"/><line stroke="#000000" stroke-linecap="square" stroke-width="1" x1="26.5" x2="85.5" y1="8.5" y2="8.5"/><polyline fill="none" points="12,-24 11,-24 5,0 2,-9" stroke="#000000" stroke-linecap="square" stroke-width="1" transform="translate(28.5,36.5)"/><polyline fill="none" points="5,0 2,-9 0,-8" stroke="#000000" stroke-linecap="square" stroke-width="1" transform="translate(28.5,36.5)"/><line stroke="#000000" stroke-linecap="square" stroke-width="1" x1="40.5" x2="83.5" y1="12.5" y2="12.5"/><polyline fill="none" points="12,-20 11,-20 5,0 2,-8" stroke="#000000" stroke-linecap="square" stroke-width="1" transform="translate(42.5,36.5)"/><polyline fill="none" points="5,0 2,-8 0,-7" stroke="#000000" stroke-linecap="square" stroke-width="1" transform="translate(42.5,36.5)"/><line stroke="#000000" stroke-linecap="square" stroke-width="1" x1="54.5" x2="81.5" y1="16.5" y2="16.5"/><polyline fill="none" points="12,-16 11,-16 5,0 2,-6" stroke="#000000" stroke-linecap="square" stroke-width="1" transform="translate(56.5,36.5)"/><polyline fill="none" points="5,0 2,-6 0,-5" stroke="#000000" stroke-linecap="square" stroke-width="1" transform="translate(56.5,36.5)"/><line stroke="#000000" stroke-linecap="square" stroke-width="1" x1="68.5" x2="79.5" y1="20.5" y2="20.5"/></svg>